<mxfile host="app.diagrams.net" modified="2024-05-18T14:00:47.382Z" agent="Mozilla/5.0 (Windows NT 10.0; Win64; x64) AppleWebKit/537.36 (KHTML, like Gecko) Chrome/124.0.0.0 Safari/537.36 Edg/124.0.0.0" etag="T32yXyLJaou8Oc5ewSAh" version="24.4.0" type="device">
  <diagram name="Trang-1" id="RufHjK9E6aXaLeSwLsm4">
    <mxGraphModel dx="1042" dy="577" grid="1" gridSize="10" guides="1" tooltips="1" connect="1" arrows="1" fold="1" page="1" pageScale="1" pageWidth="827" pageHeight="1169" math="0" shadow="0">
      <root>
        <mxCell id="0" />
        <mxCell id="1" parent="0" />
        <mxCell id="5sREDWAVeBpTvNdoZHE6-1" value="Người dùng" style="shape=umlActor;verticalLabelPosition=bottom;verticalAlign=top;html=1;outlineConnect=0;" vertex="1" parent="1">
          <mxGeometry x="100" y="270" width="30" height="60" as="geometry" />
        </mxCell>
        <mxCell id="5sREDWAVeBpTvNdoZHE6-3" value="Đăng nhập" style="ellipse;whiteSpace=wrap;html=1;" vertex="1" parent="1">
          <mxGeometry x="271" y="310" width="120" height="50" as="geometry" />
        </mxCell>
        <mxCell id="5sREDWAVeBpTvNdoZHE6-6" value="Quên mật khẩu" style="ellipse;whiteSpace=wrap;html=1;" vertex="1" parent="1">
          <mxGeometry x="470" y="260" width="120" height="50" as="geometry" />
        </mxCell>
        <mxCell id="5sREDWAVeBpTvNdoZHE6-7" value="" style="endArrow=none;html=1;rounded=0;" edge="1" parent="1" source="5sREDWAVeBpTvNdoZHE6-1" target="5sREDWAVeBpTvNdoZHE6-3">
          <mxGeometry width="50" height="50" relative="1" as="geometry">
            <mxPoint x="171" y="360" as="sourcePoint" />
            <mxPoint x="221" y="310" as="targetPoint" />
          </mxGeometry>
        </mxCell>
        <mxCell id="5sREDWAVeBpTvNdoZHE6-16" value="Đăng kí" style="ellipse;whiteSpace=wrap;html=1;" vertex="1" parent="1">
          <mxGeometry x="467.5" y="360" width="125" height="50" as="geometry" />
        </mxCell>
        <mxCell id="5sREDWAVeBpTvNdoZHE6-18" value="Đăng xuất" style="ellipse;whiteSpace=wrap;html=1;" vertex="1" parent="1">
          <mxGeometry x="271" y="430" width="120" height="50" as="geometry" />
        </mxCell>
        <mxCell id="5sREDWAVeBpTvNdoZHE6-19" value="" style="endArrow=none;html=1;rounded=0;entryX=0;entryY=0.5;entryDx=0;entryDy=0;" edge="1" parent="1" target="5sREDWAVeBpTvNdoZHE6-18">
          <mxGeometry width="50" height="50" relative="1" as="geometry">
            <mxPoint x="130" y="300" as="sourcePoint" />
            <mxPoint x="281" y="343" as="targetPoint" />
          </mxGeometry>
        </mxCell>
        <mxCell id="5sREDWAVeBpTvNdoZHE6-20" value="&amp;lt;&amp;lt;extend&amp;gt;&amp;gt;" style="html=1;verticalAlign=bottom;endArrow=open;dashed=1;endSize=8;curved=0;rounded=0;exitX=0;exitY=0.5;exitDx=0;exitDy=0;entryX=0.992;entryY=0.736;entryDx=0;entryDy=0;entryPerimeter=0;" edge="1" parent="1" source="5sREDWAVeBpTvNdoZHE6-16" target="5sREDWAVeBpTvNdoZHE6-3">
          <mxGeometry relative="1" as="geometry">
            <mxPoint x="480" y="420" as="sourcePoint" />
            <mxPoint x="400" y="420" as="targetPoint" />
          </mxGeometry>
        </mxCell>
        <mxCell id="5sREDWAVeBpTvNdoZHE6-21" value="&amp;lt;&amp;lt;extend&amp;gt;&amp;gt;" style="html=1;verticalAlign=bottom;endArrow=open;dashed=1;endSize=8;curved=0;rounded=0;exitX=-0.007;exitY=0.664;exitDx=0;exitDy=0;entryX=1;entryY=0.5;entryDx=0;entryDy=0;exitPerimeter=0;" edge="1" parent="1" source="5sREDWAVeBpTvNdoZHE6-6" target="5sREDWAVeBpTvNdoZHE6-3">
          <mxGeometry relative="1" as="geometry">
            <mxPoint x="478" y="330" as="sourcePoint" />
            <mxPoint x="400" y="292" as="targetPoint" />
          </mxGeometry>
        </mxCell>
      </root>
    </mxGraphModel>
  </diagram>
</mxfile>
